<?xml version="1.0" encoding="utf-8"?>
<!-- Generator: Adobe Illustrator 13.0.0, SVG Export Plug-In . SVG Version: 6.00 Build 14948)  -->
<!DOCTYPE svg PUBLIC "-//W3C//DTD SVG 1.1//EN" "http://www.w3.org/Graphics/SVG/1.1/DTD/svg11.dtd">
<svg version="1.1" id="Icon" xmlns="http://www.w3.org/2000/svg" xmlns:xlink="http://www.w3.org/1999/xlink" x="0px" y="0px"
	 width="512px" height="512px" viewBox="0 0 512 512" enable-background="new 0 0 512 512" xml:space="preserve">
<path d="M395.473,275.118L199.681,470.906c-5.464,5.469-11.926,8.202-19.405,8.202s-13.95-2.733-19.41-8.192l-43.987-44
	c-5.463-5.459-8.195-11.931-8.195-19.406c0-7.464,2.732-13.945,8.195-19.403l132.398-132.394L116.873,123.316
	c-5.463-5.456-8.196-11.93-8.196-19.404c0-7.473,2.733-13.942,8.196-19.406l43.986-43.994c5.466-5.464,11.932-8.196,19.411-8.196
	c7.478,0,13.946,2.732,19.41,8.196l195.792,195.791c5.464,5.456,8.192,11.93,8.192,19.406
	C403.665,263.181,400.937,269.657,395.473,275.118z"/>
</svg>
